<svg aria-hidden="true" xmlns="http://www.w3.org/2000/svg" overflow="hidden">
  <defs>
    <symbol id="location" viewBox="0 0 26 32">
      <path d="M12.284 31.535c-.435-.484-10.662-11.977-10.662-19.859C1.629 5.221 6.859-.009 13.312-.019h.001c6.454.01 11.683 5.24 11.691 11.694v.001c0 7.883-10.225 19.375-10.662 19.861a1.383 1.383 0 01-2.055.001l-.001-.001zM2.342 11.676c0 7.612 10.052 18.901 10.481 19.377a.672.672 0 00.979.001c.427-.478 10.481-11.765 10.481-19.377C24.274 5.621 19.367.714 13.312.705h-.001C7.255.715 2.349 5.623 2.341 11.678v.001zm4.907 0a6.066 6.066 0 016.063-6.063 6.07 6.07 0 016.063 6.063 6.07 6.07 0 01-6.063 6.063 6.068 6.068 0 01-6.061-6.063zm.723 0a5.349 5.349 0 005.339 5.342 5.351 5.351 0 005.342-5.341 5.349 5.349 0 00-5.342-5.34 5.347 5.347 0 00-5.34 5.342z"/>
    </symbol>
    <symbol id="phone" viewBox="0 0 32 32">
      <path d="M16.172 30.412c-1.735-.842-3.308-1.969-4.485-2.863a39.143 39.143 0 01-3.907-3.437l-.002-.002a41.838 41.838 0 01-3.355-3.826l-.071-.095c-.889-1.169-2.018-2.737-2.87-4.497-1.932-3.943-2.06-8.283-.3-10.102l.293-.305 7.604 7.609-.094.251c-.386 1.039-.202 2.203.468 2.969a61.552 61.552 0 003.05 3.274 61.585 61.585 0 003.249 3.04c.775.67 1.945.854 2.978.468l.251-.094 7.606 7.601-.298.295c-.862.837-2.284 1.248-3.963 1.248-1.876 0-4.066-.514-6.154-1.534zM1.511 6.498c-1.201 1.735-.923 5.474.719 8.83.822 1.694 1.92 3.217 2.789 4.359a41.18 41.18 0 003.353 3.835c1.334 1.329 2.585 2.425 3.82 3.365 1.218.921 2.688 1.972 4.35 2.782 3.362 1.642 7.104 1.91 8.842.699l-6.619-6.609c-1.255.369-2.622.106-3.554-.699h-.002a64.273 64.273 0 01-3.296-3.085l-.002-.002a60.748 60.748 0 01-3.084-3.313c-.812-.923-1.078-2.294-.706-3.55zM27.358 29.62l-7.582-7.596.428-.278c.137-.091.257-.19.364-.302l.001-.001 2.289-2.294c.271-.263.641-.425 1.049-.425s.778.162 1.049.425l5.403 5.405c.264.264.427.629.427 1.032 0 .413-.171.785-.446 1.05zm0-1.177l2.395-2.398a.631.631 0 00.197-.458v-.014a.613.613 0 00-.18-.434l-5.403-5.398a.656.656 0 00-.925.005l-2.279 2.277a2.16 2.16 0 01-.107.107l-.001.001zM9.844 12.094L2.262 4.515l1.366-1.369c.537-.537 1.073-1.078 1.615-1.62a1.485 1.485 0 012.078-.012l5.406 5.41a1.473 1.473 0 01-.01 2.099l-2.284 2.282a2.65 2.65 0 00-.302.365l-.006.009zm-6.403-7.58l6.306 6.306c.031-.035.062-.067.095-.098l.001-.001 2.287-2.289a.652.652 0 00.009-.923L6.734 2.106a.657.657 0 00-.904.01c-.544.542-1.078 1.076-1.615 1.617z"/>
    </symbol>
    <symbol id="mail" viewBox="0 0 41 32">
      <path d="M19.881 21.327a6.225 6.225 0 01-1.277-.603l.026.015a19.825 19.825 0 01-1.152-.717l.076.048a38.842 38.842 0 01-1.094-.771l-.852-.611c-1.222-.858-2.976-2.083-5.268-3.674-2.289-1.585-3.665-2.54-4.125-2.863a10.692 10.692 0 01-2.452-2.405l-.021-.03c-.797-1.068-1.201-2.092-1.201-3.043 0-1.155.317-2.141.943-2.924.652-.815 1.583-1.233 2.769-1.233h29.623c1.001 0 1.879.367 2.609 1.091a3.561 3.561 0 011.103 2.621c0 1.158-.361 2.275-1.071 3.316a10.256 10.256 0 01-2.548 2.582l-.032.022-9.42 6.54c-.134.093-.413.294-.847.611-.445.32-.815.576-1.105.771-.268.185-.615.406-.97.617l-.095.052a6.295 6.295 0 01-1.254.588c-.407.137-.8.207-1.164.207a3.81 3.81 0 01-1.201-.204zM6.252 3.503c-.884 0-1.542.282-2.001.861-.489.614-.727 1.37-.727 2.31 0 .733.34 1.556 1.009 2.455.698.937 1.455 1.681 2.237 2.211l.006.003c.457.323 1.833 1.28 4.122 2.865a962.154 962.154 0 015.277 3.674l.861.617c.601.459 1.284.92 1.993 1.342l.099.055c.375.221.733.39 1.065.5.669.224 1.172.189 1.743 0a5.683 5.683 0 001.062-.5c.436-.257.768-.468 1.094-.689l-.076.049c.288-.189.649-.442 1.076-.756l.861-.62 9.42-6.54A9.001 9.001 0 0037.7 8.992c.602-.879.902-1.804.902-2.764v-.041a2.58 2.58 0 00-.808-1.878l-.001-.001a2.61 2.61 0 00-1.888-.806h-.033.002z"/>
      <path d="M6.252 31.837c-1.018 0-1.897-.367-2.621-1.091a3.568 3.568 0 01-1.091-2.573v-.048.002-17.268l.858.954c.559.623 1.21 1.187 1.94 1.673 4.82 3.276 8.189 5.615 10.016 6.956.756.559 1.373.992 1.844 1.309.445.291 1.059.602 1.818.916 1.504.628 2.691.582 4.09 0 .762-.314 1.376-.625 1.821-.919a50.084 50.084 0 001.839-1.306c2.257-1.629 5.539-3.907 10.036-6.953a10.827 10.827 0 001.929-1.676l.855-.954v17.263a3.58 3.58 0 01-1.091 2.621 3.581 3.581 0 01-2.578 1.091h-.046.002zM3.52 28.125c0 .756.262 1.385.8 1.926a2.601 2.601 0 001.882.803h.049-.002 29.623c.756 0 1.385-.262 1.926-.803a2.606 2.606 0 00.803-1.885v-.043.002-14.796c-.387.349-.8.669-1.242.975l-.003.003a343.067 343.067 0 00-11.194 7.745l1.183-.813a49.836 49.836 0 01-1.879 1.332 11.45 11.45 0 01-1.904.975l-.08.028c-1.731.73-3.2.692-4.847 0a11.92 11.92 0 01-2.029-1.032l.048.029a50.49 50.49 0 01-2.028-1.434l.143.102c-1.815-1.335-5.178-3.665-9.984-6.932a11.894 11.894 0 01-1.277-.991l.012.011z"/>
    </symbol>
    <symbol id="internet" viewBox="0 0 32 32">
      <path d="M.977 15.522C.977 7.279 7.684.572 15.93.572c8.253.01 14.941 6.697 14.95 14.949v.001c-.01 8.253-6.697 14.941-14.949 14.95h-.001C7.675 30.465.985 23.776.975 15.523v-.001zm.721 0c.008 7.855 6.374 14.221 14.229 14.229h.001c7.855-.009 14.221-6.374 14.229-14.229v-.001C30.148 7.666 23.783 1.3 15.928 1.292h-.001c-7.855.01-14.22 6.375-14.229 14.228v.001z"/>
      <path d="M8.382 15.522c0-8.523 3.243-14.95 7.548-14.95 4.303 0 7.548 6.428 7.548 14.95 0 8.525-3.245 14.95-7.548 14.95s-7.548-6.426-7.548-14.95zm.721 0c0 8.113 2.935 14.229 6.827 14.229s6.827-6.116 6.827-14.229S19.819 1.293 15.93 1.293c-3.891 0-6.827 6.116-6.827 14.229z"/>
      <path d="M30.507 16.241H1.344v-.721h29.163zM29.135 22.078H2.72v-.721h26.415zM29.135 9.685H2.72v-.721h26.415z"/>
    </symbol>
    <symbol id="instagram" viewBox="0 0 32 32">
      <path d="M31.969 9.408c-.075-1.7-.35-2.869-.744-3.882a7.806 7.806 0 00-1.851-2.838A7.867 7.867 0 0026.542.844C25.523.45 24.36.175 22.66.1 20.947.019 20.403 0 16.059 0s-4.888.019-6.595.094c-1.7.075-2.869.35-3.882.744a7.803 7.803 0 00-2.838 1.85A7.867 7.867 0 00.9 5.52C.506 6.539.231 7.702.156 9.402c-.081 1.713-.1 2.257-.1 6.601s.019 4.888.094 6.595c.075 1.7.35 2.869.744 3.882a7.895 7.895 0 001.85 2.838 7.867 7.867 0 002.832 1.844c1.019.394 2.182.669 3.882.744 1.706.075 2.25.094 6.595.094s4.888-.019 6.595-.094c1.7-.075 2.869-.35 3.882-.744a8.184 8.184 0 004.682-4.682c.394-1.019.669-2.182.744-3.882.075-1.707.094-2.251.094-6.595s-.006-4.888-.081-6.595zm-2.882 13.065c-.069 1.563-.331 2.407-.55 2.969a5.31 5.31 0 01-3.038 3.038c-.563.219-1.413.481-2.969.55-1.688.075-2.194.094-6.464.094s-4.782-.019-6.464-.094c-1.563-.069-2.407-.331-2.969-.55a4.926 4.926 0 01-1.838-1.194 4.974 4.974 0 01-1.194-1.838c-.219-.563-.481-1.413-.55-2.969-.075-1.688-.094-2.194-.094-6.464s.019-4.782.094-6.464c.069-1.563.331-2.407.55-2.969a4.868 4.868 0 011.2-1.838A4.974 4.974 0 016.639 3.55c.563-.219 1.413-.481 2.969-.55 1.688-.075 2.194-.094 6.464-.094 4.276 0 4.782.019 6.464.094 1.563.069 2.407.331 2.969.55a4.914 4.914 0 011.838 1.194 4.974 4.974 0 011.194 1.838c.219.563.481 1.413.55 2.969.075 1.688.094 2.194.094 6.464s-.019 4.77-.094 6.458z"/>
      <path d="M16.059 7.783c-4.538 0-8.22 3.682-8.22 8.22s3.682 8.22 8.22 8.22c4.539 0 8.22-3.682 8.22-8.22s-3.682-8.22-8.22-8.22zm0 13.552a5.333 5.333 0 010-10.664 5.333 5.333 0 010 10.664zM26.524 7.458a1.919 1.919 0 11-3.838 0 1.919 1.919 0 013.838 0z"/>
    </symbol>
    <symbol id="facebook" viewBox="0 0 32 32">
      <path d="M21.329 5.313h2.921V.225C23.746.156 22.013 0 19.994 0c-4.212 0-7.097 2.649-7.097 7.519V12H8.249v5.688h4.648V32h5.699V17.689h4.46l.708-5.688h-5.169V8.082c.001-1.644.444-2.769 2.735-2.769z"/>
    </symbol>
  </defs>
</svg>
